<?xml version="1.0" encoding="UTF-8" standalone="no"?>
<svg width="46px" height="42px" viewBox="0 0 46 42" version="1.1" xmlns="http://www.w3.org/2000/svg" xmlns:xlink="http://www.w3.org/1999/xlink">
    <!-- Generator: Sketch 39 (31667) - http://www.bohemiancoding.com/sketch -->
    <title>“</title>
    <desc>Created with Sketch.</desc>
    <defs></defs>
    <g id="large--16-columns-Desktop-HD" stroke="none" stroke-width="1" fill="none" fill-rule="evenodd">
        <g id="Desktop-HD_VG评测_下滚" transform="translate(-486.000000, -2257.000000)" fill="#B1E9F4">
            <g id="正文" transform="translate(406.000000, 438.000000)">
                <g id="list-cheats-copy-3" transform="translate(80.000000, 1817.600000)">
                    <g id="Group-7" transform="translate(0.000000, 1.000000)">
                        <path d="M44.0574324,1 L44.0574324,6.85714286 C42.2443603,7.85972187 40.8845766,9.66697536 39.9780405,12.2789575 C39.0715045,14.8909397 38.6182432,18.3339555 38.6182432,22.6081081 L38.6182432,24.4285714 L46,24.4285714 L46,42 L28.75,42 L28.75,28.8610039 C28.75,20.8931391 30.0191315,14.5875393 32.5574324,9.94401544 C35.0957334,5.30049158 38.9290284,2.31918292 44.0574324,1 L44.0574324,1 Z M15.3074324,1 L15.3074324,6.85714286 C13.4943603,7.85972187 12.1345766,9.66697536 11.2280405,12.2789575 C10.3215045,14.8909397 9.86824324,18.3339555 9.86824324,22.6081081 L9.86824324,24.4285714 L17.25,24.4285714 L17.25,42 L0,42 L0,28.8610039 C0,20.8931391 1.26913145,14.5875393 3.80743243,9.94401544 C6.34573341,5.30049158 10.1790284,2.31918292 15.3074324,1 L15.3074324,1 Z" id="“"></path>
                    </g>
                </g>
            </g>
        </g>
    </g>
</svg>